<svg xmlns="http://www.w3.org/2000/svg" xmlns:xlink="http://www.w3.org/1999/xlink" width="22" height="24" viewBox="0 0 22 24"><defs><path id="loyta" d="M93.89 612.45l8 4a2 2 0 0 1 1.11 1.79v9.53a2 2 0 0 1-1.11 1.79l-8 4a2 2 0 0 1-1.79 0l-8-4a2 2 0 0 1-1.1-1.8v-9.52a2 2 0 0 1 1.11-1.8l8-4a2 2 0 0 1 1.78 0z"/><path id="loytb" d="M83.32 617.16L93 622l9.68-4.84"/><path id="loytc" d="M93 633.76V622"/><path id="loytd" d="M88 614.5l10 5"/></defs><g><g transform="translate(-82 -611)"><g><use fill="#fff" fill-opacity="0" stroke="#d33837" stroke-linecap="round" stroke-linejoin="round" stroke-miterlimit="50" stroke-width="2" xlink:href="#loyta"/></g><g><use fill="#fff" fill-opacity="0" stroke="#d33837" stroke-linecap="round" stroke-linejoin="round" stroke-miterlimit="50" stroke-width="2" xlink:href="#loytb"/></g><g><use fill="#fff" fill-opacity="0" stroke="#d33837" stroke-linecap="round" stroke-linejoin="round" stroke-miterlimit="50" stroke-width="2" xlink:href="#loytc"/></g><g><use fill="#fff" fill-opacity="0" stroke="#d33837" stroke-linecap="round" stroke-linejoin="round" stroke-miterlimit="50" stroke-width="2" xlink:href="#loytd"/></g></g></g></svg>