<svg xmlns="http://www.w3.org/2000/svg" xmlns:xlink="http://www.w3.org/1999/xlink" width="76.5" height="27" viewBox="0 0 76.5 27"><defs><path id="fic1a" d="M131.63 46.59c-.19.24-.48.37-.8.38L101.23 48c-.2 0-.3-.24-.14-.36 1.53-1.22 6.59-4.95 11.2-5.33 5.54-.45 12.88-.65 17.2 1.1 3.13 1.27 2.66 2.56 2.15 3.18zm4-2.62c-7.98-3.2-12.92-2.97-20.08-2.97-7.16 0-11.46 2.57-15.33 4.5-3.86 1.95-.06 1.32-12.22 2.57-9.19.95-11.44 3.52-11.99 4.72-.07.16.15.28.28.16 1.13-1.03 4.57-3.37 12.5-3.37 10.27 0 24.69 1.76 59.86 1.76.88 0-.18-3.05-.18-4.45 0-1.38-4.86.27-12.84-2.92z"/></defs><g><g transform="translate(-74 -41)"><g><g fill="#fff" font-family="'Helvetica Neue','HelveticaNeue-Bold'" font-size="16" font-style="none" font-weight="700" style="text-transform:uppercase"><text dominant-baseline="text-before-edge" font-family="Helvetica, Arial, sans-serif" transform="translate(74.5 50)"><tspan letter-spacing=".19">Automir</tspan></text></g></g><g><use fill="#d33837" xlink:href="#fic1a"/></g></g></g></svg>