<?xml version="1.0" encoding="UTF-8"?>
<svg width="76px" height="25px" viewBox="0 0 76 25" version="1.1" xmlns="http://www.w3.org/2000/svg" xmlns:xlink="http://www.w3.org/1999/xlink">
    <!-- Generator: Sketch 47.1 (45422) - http://www.bohemiancoding.com/sketch -->
    <title>Group 11</title>
    <desc>Created with Sketch.</desc>
    <defs></defs>
    <g id="Page-1" stroke="none" stroke-width="1" fill="none" fill-rule="evenodd">
        <g id="Final" transform="translate(-74.000000, -41.000000)">
            <g id="Group-11" transform="translate(74.000000, 41.000000)">
                <path d="M4.73770223,19.6944003 L7.62370205,19.6944003 L6.21970214,15.6072005 L6.18850214,15.6072005 L4.73770223,19.6944003 Z M4.97170221,12.8616007 L7.48330206,12.8616007 L11.6485018,24 L9.10570196,24 L8.26330202,21.5196001 L4.09810226,21.5196001 L3.22450232,24 L0.759702462,24 L4.97170221,12.8616007 Z M22.2643011,19.7880003 L22.2643011,12.8616007 L19.8151013,12.8616007 L19.8151013,19.7880003 C19.8151013,20.6200044 19.6487029,21.2309982 19.3159013,21.6210001 C18.9830997,22.0110021 18.3799057,22.2060001 17.5063014,22.2060001 C17.0070989,22.2060001 16.6093029,22.1358008 16.3129015,21.9954001 C16.0165,21.8549994 15.7851023,21.6730013 15.6187015,21.4494002 C15.4523007,21.225799 15.3431018,20.9684016 15.2911015,20.6772002 C15.2391013,20.3859988 15.2131015,20.0896017 15.2131015,19.7880003 L15.2131015,12.8616007 L12.7639017,12.8616007 L12.7639017,19.7880003 C12.7639017,21.3064078 13.1772975,22.4295965 14.0041016,23.1576001 C14.8309057,23.8856036 15.998294,24.2496 17.5063014,24.2496 C18.9935088,24.2496 20.158297,23.8830037 21.0007012,23.1498001 C21.8431054,22.4165964 22.2643011,21.2960077 22.2643011,19.7880003 Z M27.0301008,14.9208005 L27.0301008,24 L29.4793006,24 L29.4793006,14.9208005 L32.8177004,14.9208005 L32.8177004,12.8616007 L23.691701,12.8616007 L23.691701,14.9208005 L27.0301008,14.9208005 Z M36.2575002,18.4776003 C36.2575002,18.9456026 36.3120996,19.4005981 36.4213002,19.8426002 C36.5305007,20.2846024 36.7046989,20.6823984 36.9439001,21.0360002 C37.1831013,21.3896019 37.4950982,21.6729991 37.8799001,21.8862001 C38.264702,22.0994012 38.7326973,22.2060001 39.2839,22.2060001 C39.8351027,22.2060001 40.303098,22.0994012 40.6878999,21.8862001 C41.0727018,21.6729991 41.3846987,21.3896019 41.6238998,21.0360002 C41.863101,20.6823984 42.0372993,20.2846024 42.1464998,19.8426002 C42.2557004,19.4005981 42.3102998,18.9456026 42.3102998,18.4776003 C42.3102998,17.9887979 42.2557004,17.5156027 42.1464998,17.0580004 C42.0372993,16.6003982 41.863101,16.1922023 41.6238998,15.8334005 C41.3846987,15.4745987 41.0727018,15.1886016 40.6878999,14.9754005 C40.303098,14.7621995 39.8351027,14.6556006 39.2839,14.6556006 C38.7326973,14.6556006 38.264702,14.7621995 37.8799001,14.9754005 C37.4950982,15.1886016 37.1831013,15.4745987 36.9439001,15.8334005 C36.7046989,16.1922023 36.5305007,16.6003982 36.4213002,17.0580004 C36.3120996,17.5156027 36.2575002,17.9887979 36.2575002,18.4776003 Z M33.8083003,18.4776003 C33.8083003,17.6455962 33.9330991,16.873404 34.1827003,16.1610005 C34.4323015,15.4485969 34.7910979,14.8272032 35.2591002,14.2968006 C35.7271025,13.766398 36.3016968,13.3504021 36.9829001,13.0488007 C37.6641035,12.7471992 38.4310958,12.5964007 39.2839,12.5964007 C40.1471042,12.5964007 40.9166965,12.7471992 41.5926998,13.0488007 C42.2687032,13.3504021 42.8406974,13.766398 43.3086997,14.2968006 C43.7767021,14.8272032 44.1354984,15.4485969 44.3850997,16.1610005 C44.6347009,16.873404 44.7594997,17.6455962 44.7594997,18.4776003 C44.7594997,19.2888043 44.6347009,20.0453967 44.3850997,20.7474002 C44.1354984,21.4494037 43.7767021,22.0603975 43.3086997,22.5804001 C42.8406974,23.1004027 42.2687032,23.5085985 41.5926998,23.805 C40.9166965,24.1014015 40.1471042,24.2496 39.2839,24.2496 C38.4310958,24.2496 37.6641035,24.1014015 36.9829001,23.805 C36.3016968,23.5085985 35.7271025,23.1004027 35.2591002,22.5804001 C34.7910979,22.0603975 34.4323015,21.4494037 34.1827003,20.7474002 C33.9330991,20.0453967 33.8083003,19.2888043 33.8083003,18.4776003 Z M46.6236995,12.8616007 L46.6236995,24 L48.9168993,24 L48.9168993,16.1844005 L48.9480993,16.1844005 L51.6780992,24 L53.5656991,24 L56.2956989,16.1064005 L56.3268989,16.1064005 L56.3268989,24 L58.6200988,24 L58.6200988,12.8616007 L55.172499,12.8616007 L52.7076991,20.5212002 L52.6764991,20.5212002 L50.0712993,12.8616007 L46.6236995,12.8616007 Z M60.9678986,12.8616007 L60.9678986,24 L63.4170984,24 L63.4170984,12.8616007 L60.9678986,12.8616007 Z M68.2140981,17.9004004 L70.8972979,17.9004004 C71.4589007,17.9004004 71.8800965,17.7756016 72.1608978,17.5260004 C72.4416992,17.2763992 72.5820978,16.8708032 72.5820978,16.3092005 C72.5820978,15.7683978 72.4416992,15.3758017 72.1608978,15.1314005 C71.8800965,14.8869993 71.4589007,14.7648006 70.8972979,14.7648006 L68.2140981,14.7648006 L68.2140981,17.9004004 Z M65.7648982,12.8616007 L71.7708979,12.8616007 C72.2701003,12.8616007 72.7198958,12.9421999 73.1202978,13.1034006 C73.5206998,13.2646014 73.8638963,13.4855992 74.1498977,13.7664006 C74.4358991,14.047202 74.6542969,14.3721987 74.8050977,14.7414006 C74.9558984,15.1106024 75.0312977,15.5083984 75.0312977,15.9348005 C75.0312977,16.5900037 74.8934991,17.156798 74.6178977,17.6352004 C74.3422963,18.1136027 73.8925009,18.4775991 73.2684978,18.7272003 L73.2684978,18.7584003 C73.5700993,18.8416007 73.8196968,18.9689994 74.0172977,19.1406003 C74.2148987,19.3122011 74.3760971,19.5149991 74.5008977,19.7490003 C74.6256983,19.9830014 74.7166974,20.2403988 74.7738977,20.5212002 C74.831098,20.8020016 74.8700976,21.0827988 74.8908977,21.3636002 C74.9012977,21.540401 74.9116976,21.7483989 74.9220977,21.9876001 C74.9324977,22.2268013 74.9506975,22.4711988 74.9766977,22.7208001 C75.0026978,22.9704013 75.0442974,23.2069989 75.1014977,23.4306 C75.1586979,23.6542011 75.2444971,23.8439992 75.3588977,24 L72.9096978,24 C72.7744971,23.6463983 72.691298,23.2252025 72.6600978,22.7364001 C72.6288977,22.2475977 72.5820981,21.7796024 72.5196978,21.3324002 C72.4364974,20.7499973 72.2596992,20.3236016 71.9892979,20.0532002 C71.7188965,19.7827989 71.276901,19.6476003 70.6632979,19.6476003 L68.2140981,19.6476003 L68.2140981,24 L65.7648982,24 L65.7648982,12.8616007 Z" id="Automir" fill="#FFFFFF"></path>
                <path d="M57.6347892,5.5881434 C57.4414749,5.82535112 57.1485344,5.96404284 56.8373402,5.97472788 L27.2191266,6.9998499 C27.0185548,7.00690202 26.9213478,6.76371068 27.0768349,6.6404054 C28.6114734,5.4238076 33.6657955,1.68661063 38.2879646,1.31156599 C43.8173253,0.863008322 51.1619491,0.659137901 55.48458,2.41276544 C58.6125768,3.6815062 58.1366586,4.97161702 57.6347892,5.5881434 Z M74.4711204,5.89412824 C74.4711204,4.50711713 69.6148182,6.15998034 61.6331775,2.96776381 C53.6515368,-0.224452725 48.7107002,0.00356274166 41.5527167,0.00356274166 C34.3945118,0.00356274166 30.0872407,2.5688861 26.2232219,4.50691799 C22.3589819,6.44514903 26.1597105,5.81805671 13.9973789,7.07224134 C4.81211879,8.01915274 2.56376929,10.5918443 2.01341051,11.7946508 C1.94392412,11.9467938 2.16079248,12.070659 2.28936443,11.9537637 C3.4203993,10.9238109 6.86329513,8.58351591 14.7920465,8.58351591 C25.0600994,8.58351591 39.4791896,10.3415251 74.6492622,10.3415251 C75.5315624,10.3415251 74.4711204,7.28591872 74.4711204,5.89412824 L74.4711204,5.89412824 Z" id="Fill-40" fill="#D33837"></path>
            </g>
        </g>
    </g>
</svg>