<?xml version="1.0" encoding="UTF-8"?>
<svg width="22px" height="22px" viewBox="0 0 22 22" version="1.1" xmlns="http://www.w3.org/2000/svg" xmlns:xlink="http://www.w3.org/1999/xlink">
    <!-- Generator: Sketch 47.1 (45422) - http://www.bohemiancoding.com/sketch -->
    <title>Shape</title>
    <desc>Created with Sketch.</desc>
    <defs></defs>
    <g id="Page-1" stroke="none" stroke-width="1" fill="none" fill-rule="evenodd" stroke-linecap="round" stroke-linejoin="round">
        <g id="Final" transform="translate(-357.000000, -612.000000)" stroke="#D33837" stroke-width="2">
            <g id="Group-2-Copy" transform="translate(357.000000, 612.000000)">
                <path d="M13,8 L13,4 C13,2.34314575 11.6568542,1 10,1 L6,10 L6,21 L17.28,21 C18.2772867,21.0112744 19.1304612,20.2860761 19.28,19.3 L20.66,10.3 C20.748056,9.71985532 20.5768972,9.1303088 20.1918585,8.68751434 C19.8068198,8.24471987 19.2467517,7.99335535 18.66,8 L13,8 Z M6,21 L3,21 C1.8954305,21 1,20.1045695 1,19 L1,12 C1,10.8954305 1.8954305,10 3,10 L6,10 L6,21 Z" id="Shape"></path>
            </g>
        </g>
    </g>
</svg>