<svg xmlns="http://www.w3.org/2000/svg" xmlns:xlink="http://www.w3.org/1999/xlink" width="320" height="230" viewBox="0 0 320 230"><defs><path id="mm54a" d="M641 3722.5a80.5 80.5 0 1 1 161 0 80.5 80.5 0 0 1-161 0z"/><path id="mm54c" d="M664.17 3788.46l-3.31-6.82v-106.19h117.53v106.19l-3.65 6.82z"/><path id="mm54d" d="M655 3663.24a3.24 3.24 0 0 1 3.24-3.24h123.52a3.24 3.24 0 0 1 3.24 3.24v123.52a3.24 3.24 0 0 1-3.24 3.24H658.24a3.24 3.24 0 0 1-3.24-3.24z"/><filter id="mm54b" width="176%" height="180%" x="-28%" y="-30%" filterUnits="objectBoundingBox"><feGaussianBlur in="SourceGraphic" result="FeGaussianBlur1025Out" stdDeviation="10.80000014305114 10.80000014305114"/></filter></defs><g><g transform="translate(-559 -3641)"><g><use fill="#fff" fill-opacity="0" stroke="#37d341" stroke-miterlimit="50" stroke-width=".8" xlink:href="#mm54a"/></g><g><g filter="url(#mm54b)"><use fill="#cdd6dc" xlink:href="#mm54c"/></g><g><use fill="#fff" xlink:href="#mm54d"/></g></g><g><g fill="#33ce33" font-family="'Helvetica Neue','HelveticaNeue-Bold'" font-size="45" font-style="none" font-weight="700"><text dominant-baseline="text-before-edge" font-family="Helvetica, Arial, sans-serif" transform="translate(693 3685)"><tspan letter-spacing=".57">14</tspan></text></g></g><g><g fill="#0a1218" font-family="'Helvetica Neue','HelveticaNeue-Bold'" font-size="18" font-style="none" font-weight="700"><text dominant-baseline="text-before-edge" font-family="Helvetica, Arial, sans-serif" transform="translate(697 3738)"><tspan letter-spacing=".23">Дней</tspan></text></g></g></g></g></svg>